<svg xmlns="http://www.w3.org/2000/svg" width="512" height="512" viewBox="0 0 512 512">
  <!-- Sun -->
  <circle cx="160" cy="150" r="60" fill="#FFD34E"/>
  <g stroke="#FFD34E" stroke-width="12" stroke-linecap="round">
    <line x1="160" y1="70" x2="160" y2="30"/>
    <line x1="160" y1="230" x2="160" y2="270"/>
    <line x1="80" y1="150" x2="40" y2="150"/>
    <line x1="240" y1="150" x2="280" y2="150"/>
    <line x1="100" y1="90" x2="70" y2="60"/>
    <line x1="220" y1="90" x2="250" y2="60"/>
    <line x1="100" y1="210" x2="70" y2="240"/>
    <line x1="220" y1="210" x2="250" y2="240"/>
  </g>

  <!-- Cloud -->
  <g fill="#f1f1f1">
    <circle cx="235" cy="315" r="55"/>
    <circle cx="325" cy="270" r="75"/>
    <circle cx="405" cy="315" r="55"/>
    <rect x="190" y="290" width="260" height="80" rx="35"/>
  </g>

  <!-- Rain -->
  <g fill="#A9DDFF">
    <ellipse cx="250" cy="410" rx="12" ry="30" transform="rotate(30,250,410)"/>
    <ellipse cx="310" cy="410" rx="12" ry="30" transform="rotate(30,310,410)"/>
    <ellipse cx="370" cy="410" rx="12" ry="30" transform="rotate(30,370,410)"/>
  </g>
</svg>
