<svg name="pressure" class="WeatherDetailsListItem--icon--A88ff Icon--icon--ySD-o Icon--darkTheme--RWEd0" fill="none" xmlns="http://www.w3.org/2000/svg" viewBox="0 0 20 21">
  <title>Pressure</title>
  <path d="m10.94 10.5 5.1-4.533a.625.625 0 0 0-.415-1.092H13.75V1.75H12.5v4.375h1.481L10 9.664 6.019 6.125H7.5V1.75H6.25v3.125H4.375a.625.625 0 0 0-.415 1.092L9.059 10.5l-5.1 4.533a.625.625 0 0 0 .416 1.092H6.25v3.125H7.5v-4.375H6.019L10 11.336l3.981 3.539H12.5v4.375h1.25v-3.125h1.875a.625.625 0 0 0 .415-1.092l-5.1-4.533Z" fill="currentColor"></path>
</svg>