<svg name="sunrise" class="TwcSunChart--sunIcon--0mWQU Icon--icon--ySD-o" fill="none" xmlns="http://www.w3.org/2000/svg" viewBox="0 0 20 21">
  <title>Sunrise</title>
  <path fill-rule="evenodd" clip-rule="evenodd" d="M6.875 6.125 10 3l3.125 3.125-.881.881-1.619-1.612v4.481h-1.25V5.394L7.756 7.006l-.881-.881Zm8.87 2.746-2.191 2.191.884.884 2.19-2.191-.883-.884ZM10 13a2.503 2.503 0 0 1 2.5 2.5h1.25a3.75 3.75 0 0 0-7.5 0H7.5A2.503 2.503 0 0 1 10 13Zm8.75 4.375H1.25v1.25h17.5v-1.25Zm-3.125-3.125h3.125v1.25h-3.125v-1.25ZM4.255 8.871l-.884.884 2.191 2.191.884-.884-2.191-2.19ZM1.25 14.25h3.125v1.25H1.25v-1.25Z" fill="currentColor"></path>
</svg>