<svg name="sunset" class="TwcSunChart--sunIcon--0mWQU Icon--icon--ySD-o" fill="none" xmlns="http://www.w3.org/2000/svg" viewBox="0 0 20 21">
  <title>Sunset</title>
  <path fill-rule="evenodd" clip-rule="evenodd" d="m10.625 8.11 1.619-1.613.881.88L10 10.504 6.875 7.378l.881-.881 1.619 1.612V3.003h1.25v5.106Zm5.12.764-2.191 2.191.884.884 2.19-2.191-.883-.884ZM10 13.003a2.503 2.503 0 0 1 2.5 2.5h1.25a3.75 3.75 0 0 0-7.5 0H7.5a2.503 2.503 0 0 1 2.5-2.5Zm8.75 4.375H1.25v1.25h17.5v-1.25Zm-3.125-3.125h3.125v1.25h-3.125v-1.25ZM4.255 8.874l-.884.884 2.191 2.19.884-.883-2.191-2.191ZM1.25 14.253h3.125v1.25H1.25v-1.25Z" fill="currentColor"></path>
</svg>