<svg name="temperature" class="WeatherDetailsListItem--icon--A88ff Icon--icon--ySD-o Icon--darkTheme--RWEd0" fill="none" xmlns="http://www.w3.org/2000/svg" viewBox="0 0 20 21">
  <title>Temperature</title>
  <path fill-rule="evenodd" clip-rule="evenodd" d="M8.125 11.287V4.25a2.5 2.5 0 1 0-5 0v7.037a4.375 4.375 0 1 0 5 0ZM5.625 3a1.25 1.25 0 0 1 1.25 1.25v4.375h-2.5V4.25A1.25 1.25 0 0 1 5.625 3Zm0 15a3.125 3.125 0 0 1-1.563-5.831l.313-.175V9.875h2.5v2.119l.313.175A3.125 3.125 0 0 1 5.625 18ZM18.75 3H12.5v1.25h6.25V3ZM12.5 6.75h4.375V8H12.5V6.75Zm6.25 3.75H12.5v1.25h6.25V10.5Zm-6.25 3.75h4.375v1.25H12.5v-1.25Z" fill="currentColor"></path>
</svg>