<svg name="visibility" class="WeatherDetailsListItem--icon--A88ff Icon--icon--ySD-o Icon--darkTheme--RWEd0" fill="none" xmlns="http://www.w3.org/2000/svg" viewBox="0 0 20 21">
  <title>Visibility</title>
  <path fill-rule="evenodd" clip-rule="evenodd" d="M15.667 5.558a10.431 10.431 0 0 1 3.67 4.73.62.62 0 0 1 0 .425A10.43 10.43 0 0 1 10 17.375a10.431 10.431 0 0 1-9.338-6.662.625.625 0 0 1 0-.425A10.431 10.431 0 0 1 10 3.624a10.43 10.43 0 0 1 5.667 1.933ZM1.919 10.5c1.268 3.169 4.768 5.625 8.081 5.625 3.313 0 6.813-2.456 8.081-5.625C16.813 7.331 13.313 4.875 10 4.875c-3.313 0-6.813 2.456-8.081 5.625Zm5.998-3.118a3.75 3.75 0 1 1 4.166 6.236 3.75 3.75 0 0 1-4.166-6.236Zm.694 5.197A2.5 2.5 0 1 0 11.39 8.42a2.5 2.5 0 0 0-2.78 4.16Z" fill="currentColor"></path>
</svg>